<!-- Generated by IcoMoon.io -->
<svg version="1.1" xmlns="http://www.w3.org/2000/svg" width="31" height="32" viewBox="0 0 31 32">
<title>shopping-cart-dark</title>
<path fill="none" stroke-linejoin="round" stroke-linecap="round" stroke-miterlimit="4" stroke-width="1.92" stroke="#000" d="M6.4 18.56h16.814c1.296 0 1.945 0 2.461-0.242 0.455-0.213 0.837-0.555 1.098-0.983 0.297-0.486 0.369-1.131 0.512-2.419l0.749-6.739c0.044-0.394 0.066-0.59 0.002-0.743-0.056-0.134-0.155-0.245-0.282-0.315-0.144-0.080-0.342-0.080-0.738-0.080h-21.256M2.56 3.2h1.598c0.339 0 0.508 0 0.641 0.064 0.117 0.057 0.213 0.148 0.277 0.26 0.073 0.128 0.083 0.297 0.104 0.635l1.16 18.56c0.021 0.338 0.032 0.507 0.104 0.635 0.064 0.113 0.161 0.204 0.277 0.26 0.133 0.064 0.302 0.064 0.641 0.064h16.958M9.6 28.16h0.013M21.12 28.16h0.013M10.24 28.16c0 0.353-0.287 0.64-0.64 0.64s-0.64-0.287-0.64-0.64c0-0.353 0.287-0.64 0.64-0.64s0.64 0.287 0.64 0.64zM21.76 28.16c0 0.353-0.287 0.64-0.64 0.64s-0.64-0.287-0.64-0.64c0-0.353 0.287-0.64 0.64-0.64s0.64 0.287 0.64 0.64z"></path>
</svg>
