<svg xmlns="http://www.w3.org/2000/svg" aria-hidden="true" style="width:0;height:0;position:absolute;overflow:hidden"><defs><symbol id="icon-big-arrow" viewBox="0 0 32 32"><path d="M17.867 16.947a1.334 1.334 0 0 0 0-1.894l-6.12-6.107a1.334 1.334 0 1 1 1.88-1.894l6.12 6.12a4.001 4.001 0 0 1 0 5.654l-6.12 6.12a1.337 1.337 0 0 1-2.172-.434 1.331 1.331 0 0 1 .292-1.46l6.12-6.107z"/></symbol><symbol id="icon-chevron-down" viewBox="0 0 32 32"><path stroke-linecap="round" stroke-linejoin="round" stroke-width="3.556" d="m8 12 8 8 8-8"/></symbol><symbol id="icon-close" viewBox="0 0 32 32"><path stroke-linecap="round" stroke-linejoin="round" stroke-width="3.556" d="M24 8 8 24M8 8l16 16"/></symbol><symbol id="icon-heart" viewBox="0 0 32 32"><path stroke-linecap="round" stroke-linejoin="round" stroke-width="2.909" d="M27.787 6.147a7.345 7.345 0 0 0-5.187-2.15 7.33 7.33 0 0 0-5.187 2.15L16 7.56l-1.413-1.413a7.333 7.333 0 0 0-10.374 0 7.333 7.333 0 0 0 0 10.374L16 28.308l11.787-11.787a7.345 7.345 0 0 0 2.15-5.187 7.33 7.33 0 0 0-2.15-5.187z"/></symbol><symbol id="icon-search" viewBox="0 0 32 32"><path d="M28.947 27.054 24 22.147a11.999 11.999 0 0 0-1.353-16.445 12 12 0 1 0-.5 18.298l4.907 4.907a1.334 1.334 0 0 0 1.894 0 1.336 1.336 0 0 0 0-1.854zm-14.28-3.053a9.33 9.33 0 0 1-8.623-5.762A9.339 9.339 0 0 1 8.067 8.067a9.331 9.331 0 0 1 14.36 1.415 9.33 9.33 0 0 1-1.161 11.785 9.332 9.332 0 0 1-6.6 2.734z"/></symbol><symbol id="icon-shopping-cart" viewBox="0 0 32 32"><path stroke-linecap="round" stroke-linejoin="round" stroke-width="2" d="M6.667 18.667h17.514c1.35 0 2.026 0 2.563-.252a2.667 2.667 0 0 0 1.144-1.024c.31-.507.384-1.178.533-2.52l.78-7.02c.046-.41.068-.615.002-.774a.669.669 0 0 0-.293-.328c-.15-.083-.357-.083-.769-.083H6M2.667 2.667h1.665c.353 0 .529 0 .667.067a.67.67 0 0 1 .289.271c.076.134.087.31.109.662L6.605 23c.022.352.033.528.109.662a.664.664 0 0 0 .289.271c.138.067.314.067.667.067h17.665M10 28.667h.013m11.987 0h.013m-11.346 0a.667.667 0 1 1-1.334 0 .667.667 0 0 1 1.334 0zm12 0a.667.667 0 1 1-1.335-.001.667.667 0 0 1 1.335.001z"/></symbol><symbol id="icon-small-arrow" viewBox="0 0 32 32"><path d="M17.867 16.947a1.334 1.334 0 0 0 0-1.894l-6.12-6.107a1.334 1.334 0 1 1 1.88-1.894l6.12 6.12a4.001 4.001 0 0 1 0 5.654l-6.12 6.12a1.337 1.337 0 0 1-2.172-.434 1.331 1.331 0 0 1 .292-1.46l6.12-6.107z"/></symbol><symbol id="icon-correct" viewBox="0 0 32 32"><path fill="#3cbc81" style="fill:var(--color1,#3cbc81)" d="M0 16C0 7.162 7.162 0 16 0s16 7.162 16 16c0 8.837-7.163 16-16 16S0 24.837 0 16zm23.237-2.762c.681-.681.681-1.794 0-2.475s-1.794-.681-2.475 0l-6.763 6.762-2.763-2.762c-.681-.681-1.794-.681-2.475 0s-.681 1.794 0 2.475l4 4a1.755 1.755 0 0 0 2.475 0l8-8z"/></symbol><symbol id="icon-error" viewBox="0 0 32 32"><path fill="#e74a3b" style="fill:var(--color2,#e74a3b)" d="M0 16C0 7.162 7.162 0 16 0s16 7.162 16 16c0 8.837-7.163 16-16 16S0 24.837 0 16zm10.938-2.994 2.944 2.938-2.944 2.994c-.581.588-.581 1.538 0 2.069.588.637 1.537.637 2.069 0l2.938-2.888 2.994 2.888c.588.637 1.538.637 2.069 0 .637-.531.637-1.481 0-2.069l-2.888-2.994 2.888-2.938c.637-.531.637-1.481 0-2.069-.531-.581-1.481-.581-2.069 0l-2.994 2.944-2.938-2.944c-.531-.581-1.481-.581-2.069 0-.581.588-.581 1.537 0 2.069z"/></symbol><symbol id="icon-youtube" viewBox="0 0 32 32"><path fill="none" stroke-linejoin="round" stroke-linecap="round" stroke-width="1.684" d="M30.053 8.56a3.703 3.703 0 0 0-2.587-2.667c-2.293-.56-11.467-.56-11.467-.56s-9.173 0-11.467.613c-.628.178-1.197.518-1.652.986s-.777 1.048-.935 1.681a38.606 38.606 0 0 0-.613 7.053c-.015 2.383.19 4.762.613 7.107.175.613.504 1.171.958 1.619s1.014.772 1.629.941c2.293.613 11.467.613 11.467.613s9.173 0 11.467-.613c.628-.178 1.197-.518 1.652-.986s.777-1.048.935-1.681a38.66 38.66 0 0 0 .613-7 38.663 38.663 0 0 0-.613-7.107z"/><path fill="none" stroke-linejoin="round" stroke-linecap="round" stroke-width="1.684" d="m13 20.027 7.667-4.36L13 11.307v8.72z"/></symbol><symbol id="icon-up" viewBox="0 0 32 32"><path d="M16 32C7.2 32 0 24.8 0 16S7.2 0 16 0s16 7.2 16 16-7.2 16-16 16zm0-29.333c-7.333 0-13.333 6-13.333 13.333s6 13.333 13.333 13.333 13.333-6 13.333-13.333S23.333 2.667 16 2.667z"/><path d="M20 18.667c-.4 0-.667-.133-.933-.4L16 15.2l-3.067 3.067c-.533.533-1.333.533-1.867 0s-.533-1.333 0-1.867l4-4a1.29 1.29 0 0 1 1.867 0l4 4a1.29 1.29 0 0 1 0 1.867c-.267.267-.533.4-.933.4z"/></symbol><symbol id="icon-elements-1" viewBox="0 0 37 32"><path fill="#9bb537" style="fill:var(--color1,#9bb537)" d="M7.325 12.723h23.133v17.735H7.325V12.723z"/><path fill="#9bb537" style="fill:var(--color1,#9bb537)" d="M16.578 11.373a8.289 8.289 0 1 1-16.578 0 8.289 8.289 0 1 1 16.578 0z"/><path fill="#9bb537" style="fill:var(--color1,#9bb537)" d="M26.988 8.289a8.289 8.289 0 1 1-16.578 0 8.289 8.289 0 1 1 16.578 0z"/><path fill="#9bb537" style="fill:var(--color1,#9bb537)" d="M37.398 11.373a8.289 8.289 0 1 1-16.578 0 8.289 8.289 0 1 1 16.578 0z"/><path fill="#f8f8f8" style="fill:var(--color2,#f8f8f8)" d="M7.325 29.301h23.133v2.036c0 .366-.324.663-.723.663H8.048c-.399 0-.723-.297-.723-.663v-2.036zm6.94-18.941c0-.611.432-1.107.964-1.107s.964.495.964 1.107v5.112c0 .611-.432 1.107-.964 1.107s-.964-.495-.964-1.107V10.36zm3.084 0c0-.611.604-1.107 1.349-1.107s1.349.495 1.349 1.107v5.112c0 .611-.604 1.107-1.349 1.107s-1.349-.495-1.349-1.107V10.36zm3.856 0c0-.611.432-1.107.964-1.107s.964.495.964 1.107v5.112c0 .611-.432 1.107-.964 1.107s-.964-.495-.964-1.107V10.36z"/><path fill="#050505" style="fill:var(--color3,#050505)" d="M28.184 3.131c.262-.029.566-.045.874-.045h.005a8.332 8.332 0 0 1 7.938 5.746 8.333 8.333 0 0 1-8.816-5.7z"/></symbol></defs></svg>