<svg xmlns="http://www.w3.org/2000/svg" aria-hidden="true" style="position:absolute;width:0;height:0;overflow:hidden">
  <defs>
    <symbol id="icon-big-arrow" viewBox="0 0 32 32">
      <path d="M17.867 16.947a1.334 1.334 0 0 0 0-1.894l-6.12-6.107a1.334 1.334 0 1 1 1.88-1.894l6.12 6.12a4.001 4.001 0 0 1 0 5.654l-6.12 6.12a1.337 1.337 0 0 1-2.172-.434 1.331 1.331 0 0 1 .292-1.46l6.12-6.107z"/>
    </symbol>
    <symbol id="icon-chevron-down" viewBox="0 0 32 32">
      <path stroke-linecap="round" stroke-linejoin="round" stroke-width="3.556" d="m8 12 8 8 8-8"/>
    </symbol>
    <symbol id="icon-close" viewBox="0 0 32 32">
      <path stroke-linecap="round" stroke-linejoin="round" stroke-width="3.556" d="M24 8 8 24M8 8l16 16"/>
    </symbol>
    <symbol id="icon-heart" viewBox="0 0 32 32">
      <path stroke-linecap="round" stroke-linejoin="round" stroke-width="2.909" d="M27.787 6.147a7.345 7.345 0 0 0-5.187-2.15 7.33 7.33 0 0 0-5.187 2.15L16 7.56l-1.413-1.413a7.333 7.333 0 0 0-10.374 0 7.333 7.333 0 0 0 0 10.374L16 28.308l11.787-11.787a7.345 7.345 0 0 0 2.15-5.187 7.33 7.33 0 0 0-2.15-5.187z"/>
    </symbol>
    <symbol id="icon-search" viewBox="0 0 32 32">
      <path d="M28.947 27.054 24 22.147a11.999 11.999 0 0 0-1.353-16.445 12 12 0 1 0-.5 18.298l4.907 4.907a1.334 1.334 0 0 0 1.894 0 1.336 1.336 0 0 0 0-1.854zm-14.28-3.053a9.33 9.33 0 0 1-8.623-5.762A9.339 9.339 0 0 1 8.067 8.067a9.331 9.331 0 0 1 14.36 1.415 9.33 9.33 0 0 1-1.161 11.785 9.332 9.332 0 0 1-6.6 2.734z"/>
    </symbol>
    <symbol id="icon-shopping-cart" viewBox="0 0 32 32">
      <path stroke-linecap="round" stroke-linejoin="round" stroke-width="2" d="M6.667 18.667h17.514c1.35 0 2.026 0 2.563-.252a2.667 2.667 0 0 0 1.144-1.024c.31-.507.384-1.178.533-2.52l.78-7.02c.046-.41.068-.615.002-.774a.669.669 0 0 0-.293-.328c-.15-.083-.357-.083-.769-.083H6M2.667 2.667h1.665c.353 0 .529 0 .667.067a.67.67 0 0 1 .289.271c.076.134.087.31.109.662L6.605 23c.022.352.033.528.109.662a.664.664 0 0 0 .289.271c.138.067.314.067.667.067h17.665M10 28.667h.013m11.987 0h.013m-11.346 0a.667.667 0 1 1-1.334 0 .667.667 0 0 1 1.334 0zm12 0a.667.667 0 1 1-1.335-.001.667.667 0 0 1 1.335.001z"/>
    </symbol>
    <symbol id="icon-small-arrow" viewBox="0 0 32 32">
      <path d="M17.867 16.947a1.334 1.334 0 0 0 0-1.894l-6.12-6.107a1.334 1.334 0 1 1 1.88-1.894l6.12 6.12a4.001 4.001 0 0 1 0 5.654l-6.12 6.12a1.337 1.337 0 0 1-2.172-.434 1.331 1.331 0 0 1 .292-1.46l6.12-6.107z"/>
    </symbol>
  </defs>
</svg>
